<svg id="Layer_1" data-name="Layer 1" xmlns="http://www.w3.org/2000/svg" xmlns:xlink="http://www.w3.org/1999/xlink" viewBox="0 0 1232 880"><defs><style>.cls-1{font-size:21px;font-family:Roboto Condensed;}.cls-2{font-weight:700;}.cls-3{font-size:18px;fill:red;font-style:italic;}.cls-4{letter-spacing:-1px;}</style><image id="image" width="2100" height="1500" xlink:href="clock.png"/></defs><title>waitMap</title><image width="2100" height="1500" transform="scale(0.59)" xlink:href="unitedStates.png"/><use transform="translate(700.67 305.78) scale(0.02)" xlink:href="#image"/><use transform="translate(866.44 340.98) scale(0.02)" xlink:href="#image"/><use transform="translate(911.67 365.67) scale(0.02)" xlink:href="#image"/><use transform="translate(893.11 420.67) scale(0.02)" xlink:href="#image"/><use transform="translate(872.56 620.89) scale(0.02)" xlink:href="#image"/><use transform="translate(619.44 575.33) scale(0.02)" xlink:href="#image"/><use transform="translate(329.33 474.21) scale(0.02)" xlink:href="#image"/><use transform="translate(296.89 413.11) scale(0.02)" xlink:href="#image"/><text class="cls-1" transform="translate(304.89 373.54)"><tspan class="cls-2">san f<tspan x="41.48" y="0">r</tspan><tspan x="48.13" y="0">ancisco</tspan></tspan><tspan class="cls-3"><tspan x="0" y="21.6">2 years</tspan></tspan></text><text class="cls-1" transform="translate(340.89 434.64)"><tspan class="cls-2">anaheim</tspan><tspan class="cls-3"><tspan x="0" y="21.6">3 years, 6 months</tspan></tspan></text><text class="cls-1" transform="translate(598.44 491.75)"><tspan class="cls-2">hous<tspan x="40.66" y="0">t</tspan><tspan x="46.8" y="0">on</tspan></tspan><tspan class="cls-3"><tspan x="0" y="21.6">1 yea</tspan><tspan class="cls-4" x="36.87" y="21.6">r</tspan><tspan x="41.19" y="21.6">, 7 months</tspan></tspan></text><text class="cls-1" transform="translate(638.89 325.78)"><tspan class="cls-2">chicago</tspan><tspan class="cls-3"><tspan x="0" y="21.6">2 years, 7 months</tspan></tspan></text><text class="cls-1" transform="translate(882.11 587.75)"><tspan class="cls-2">miami</tspan><tspan class="cls-3"><tspan x="0" y="21.6">2 years, 7 months</tspan></tspan></text><text class="cls-1" transform="translate(902.67 388.23)"><tspan class="cls-2">arling<tspan x="48.33" y="0">t</tspan><tspan x="54.47" y="0">on</tspan></tspan><tspan class="cls-3"><tspan x="0" y="21.6">2 years, 3 months</tspan></tspan></text><text class="cls-1" transform="translate(920.44 329.78)"><tspan class="cls-2">newark</tspan><tspan class="cls-3"><tspan x="0" y="21.6">2 years, 3 months</tspan></tspan></text><text class="cls-1" transform="translate(851.22 259.97)"><tspan class="cls-2">albany</tspan><tspan class="cls-3"><tspan x="0" y="21.6">1 yea</tspan><tspan class="cls-4" x="36.87" y="21.6">r</tspan><tspan x="41.19" y="21.6">, 7 months</tspan></tspan></text></svg>